#!OML:ASF E:\acrobat2\Project_11_07_03\Capture day 1\Session 1\Acrobat.ASF
:FULLY-SPECIFIED
:DEGREES
97
root 5.78605 17.9954 -23.4244 11.3858 82.3297 3.72442
lowerback -1.30504 -4.13792 -4.99818
upperback 0.699777 -5.46248 2.52311
thorax 2.16971 -2.81733 5.2005
lowerneck 10.4912 -22.4085 -8.34017
upperneck -9.30837 -29.8167 17.8307
head -0.45732 -15.5403 6.51141
rclavicle 1.78409e-014 -1.19271e-014
rhumerus -36.9895 4.22244 -79.7706
rradius 30.005
rwrist -1.68012
rhand -3.72299 -41.3524
rfingers 7.12502
rthumb 22.02 -70.1189
lclavicle 1.78409e-014 -1.19271e-014
lhumerus -36.816 -2.89688 78.9577
lradius 30.6431
lwrist 12.2571
lhand -8.76934 -13.4621
lfingers 7.12502
lthumb 17.1685 15.7995
rfemur -12.552 2.03163 5.18606
rtibia 16.3696
rfoot -20.8523 -24.7563
rtoes -3.05833
lfemur -1.50292 -2.73964 -6.82274
ltibia 7.0474
lfoot -16.3101 -11.7531
ltoes 49.6608
98
root 5.77403 17.9925 -23.4053 10.5019 82.5355 2.66466
lowerback -0.9586 -4.06039 -4.76621
upperback 0.711786 -5.37669 2.55969
thorax 1.95833 -2.76605 5.1395
lowerneck 10.6203 -22.5907 -8.45371
upperneck -9.85246 -30.0279 18.099
head -0.552521 -15.6719 6.62211
rclavicle 4.35338e-014 5.1684e-015
rhumerus -37.2128 3.95763 -79.7849
rradius 30.0724
rwrist -1.38332
rhand -3.61715 -41.4229
rfingers 7.12502
rthumb 22.1216 -70.1774
lclavicle 4.35338e-014 5.1684e-015
lhumerus -36.7709 -2.87971 78.7082
lradius 30.5188
lwrist 12.0382
lhand -8.70486 -13.484
lfingers 7.12502
lthumb 17.2305 15.7721
rfemur -13.4143 1.33668 5.50063
rtibia 17.7739
rfoot -20.9152 -24.3506
rtoes -3.95678
lfemur -1.82851 -2.37544 -6.49663
ltibia 7.19706
lfoot -15.7495 -11.6254
ltoes 50.8388
99
root 5.76282 17.987 -23.3835 10.8691 82.8115 2.77835
lowerback -0.704549 -4.01159 -4.62
upperback 0.691777 -5.3223 2.49108
thorax 1.76782 -2.73089 5.00938
lowerneck 10.6712 -22.4048 -8.64868
upperneck -9.89437 -29.7775 18.6304
head -0.489191 -15.5728 6.78934
rclavicle 1.68967e-014 -1.35174e-014
rhumerus -37.3127 3.4927 -79.855
rradius 29.9012
rwrist -0.974438
rhand -3.07074 -41.2623
rfingers 7.12502
rthumb 22.6461 -69.9537
lclavicle 1.68967e-014 -1.35174e-014
lhumerus -36.694 -2.9505 78.2805
lradius 30.3228
lwrist 11.7074
lhand -8.74129 -13.2606
lfingers 7.12502
lthumb 17.1955 15.9985
rfemur -14.415 0.235557 5.57794
rtibia 19.2396
rfoot -21.2086 -23.5121
rtoes -2.79204
lfemur -2.32536 -2.27313 -6.35513
ltibia 7.41405
lfoot -15.4308 -11.1294
ltoes 51.1968
100
root 5.75052 17.9799 -23.3539 12.8809 83.0471 4.51333
lowerback -0.559185 -3.82597 -4.61475
upperback 0.73526 -5.07656 2.18973
thorax 1.67226 -2.6038 4.71349
lowerneck 10.8392 -22.4782 -8.15747
upperneck -10.4441 -29.7169 19.256
head -0.653448 -15.6079 6.97397
rclavicle 9.69075e-015 -5.76476e-015
rhumerus -37.4267 2.99097 -80.2122
rradius 29.7459
rwrist -0.933408
rhand -2.90681 -41.08
rfingers 7.12502
rthumb 22.8034 -69.7521
lclavicle 9.69075e-015 -5.76476e-015
lhumerus -36.4046 -3.68853 77.7889
lradius 30.1683
lwrist 11.6359
lhand -8.77857 -13.0933
lfingers 7.12502
lthumb 17.1596 16.169
rfemur -15.4192 -0.383722 5.3148
rtibia 20.5167
rfoot -21.9311 -22.7775
rtoes 0.409461
lfemur -2.91761 -2.54019 -6.44831
ltibia 7.70396
lfoot -15.5679 -10.5254
ltoes 51.0961
101
root 5.73774 17.9728 -23.3162 15.2113 83.1376 6.54101
lowerback -0.371663 -3.82808 -4.86806
upperback 0.738652 -5.08461 2.15642
thorax 1.59113 -2.60859 4.83363
lowerneck 10.7598 -22.2745 -8.32363
upperneck -10.6295 -29.4229 19.706
head -0.637883 -15.4829 7.12104
rclavicle -5.93869e-015 -3.97569e-016
rhumerus -37.3688 3.8253 -80.6524
rradius 29.64
rwrist -1.46951
rhand -3.00268 -41.102
rfingers 7.12502
rthumb 22.7114 -69.7855
lclavicle -5.93869e-015 -3.97569e-016
lhumerus -36.3512 -3.48762 77.4407
lradius 30.0548
lwrist 11.4014
lhand -8.47433 -13.0932
lfingers 7.12502
lthumb 17.4524 16.1434
rfemur -16.5173 -0.689757 5.079
rtibia 21.8
rfoot -22.2233 -22.4706
rtoes 1.54314
lfemur -3.5116 -2.73516 -6.56088
ltibia 7.98493
lfoot -15.5224 -10.2323
ltoes 51.7218
102
root 5.726 17.9631 -23.281 15.9406 83.3825 7.01963
lowerback -0.127248 -3.82506 -4.8082
upperback 0.767636 -5.09052 2.13691
thorax 1.47764 -2.60826 4.79644
lowerneck 10.6568 -22.0622 -8.54898
upperneck -10.6789 -29.1359 20.2127
head -0.560932 -15.3583 7.27284
rclavicle -2.57426e-014 -4.17448e-015
rhumerus -37.3075 4.05717 -80.9656
rradius 29.4867
rwrist -1.42028
rhand -3.05094 -41.0087
rfingers 7.12502
rthumb 22.6651 -69.6978
lclavicle -2.57426e-014 -4.17448e-015
lhumerus -36.2475 -3.58641 77.1912
lradius 29.9425
lwrist 11.3592
lhand -8.43521 -12.8895
lfingers 7.12502
lthumb 17.49 16.3438
rfemur -17.5203 -1.19918 5.15709
rtibia 23.1132
rfoot -22.0056 -22.3732
rtoes 0.51546
lfemur -4.10986 -2.54271 -6.38339
ltibia 8.32633
lfoot -15.021 -10.0744
ltoes 52.3678
103
root 5.71588 17.9515 -23.248 16.0054 83.8244 6.88315
lowerback 0.149455 -3.8769 -4.61491
upperback 0.808047 -5.17099 2.17009
thorax 1.35967 -2.64432 4.739
lowerneck 10.6346 -22.1581 -8.41055
upperneck -11.1816 -29.1924 20.2555
head -0.711533 -15.4054 7.30511
rclavicle -1.77167e-014 2.44505e-014
rhumerus -37.2073 3.85682 -81.0253
rradius 29.1974
rwrist -0.908237
rhand -3.27303 -40.9676
rfingers 7.12502
rthumb 22.4519 -69.6826
lclavicle -1.77167e-014 2.44505e-014
lhumerus -36.2097 -3.84456 77.0824
lradius 29.9099
lwrist 11.5928
lhand -8.7924 -12.5377
lfingers 7.12502
lthumb 17.1463 16.7257
rfemur -18.3554 -1.75376 5.37315
rtibia 24.4187
rfoot -21.9088 -22.1945
rtoes -0.00304739
lfemur -4.73478 -2.35944 -6.09861
ltibia 8.78315
lfoot -14.7636 -9.91568
ltoes 51.9595
104
root 5.70713 17.94 -23.2096 16.2583 84.2041 6.9118
lowerback 0.424155 -3.90362 -4.62878
upperback 0.819852 -5.2179 2.34172
thorax 1.24132 -2.66625 4.94327
lowerneck 10.5353 -22.1449 -8.30442
upperneck -11.6605 -29.1047 20.2733
head -0.862544 -15.3746 7.33594
rclavicle -2.33572e-014 1.21259e-014
rhumerus -37.0599 3.76528 -80.846
rradius 28.7986
rwrist -0.618726
rhand -3.9324 -41.3277
rfingers 7.12502
rthumb 21.8189 -70.1177
lclavicle -2.33572e-014 1.21259e-014
lhumerus -36.223 -4.09735 77.2019
lradius 29.874
lwrist 11.8111
lhand -9.08287 -12.1649
lfingers 7.12502
lthumb 16.8667 17.1226
rfemur -19.2671 -2.54483 5.53912
rtibia 25.8107
rfoot -21.7273 -21.6808
rtoes -0.260695
lfemur -5.35456 -2.35081 -5.85359
ltibia 9.26228
lfoot -14.7528 -10.0574
ltoes 51.7598
105
root 5.69749 17.9287 -23.1714 16.5103 84.5686 6.91884
lowerback 0.616817 -3.87762 -3.96419
upperback 0.857258 -5.18586 2.00671
thorax 1.07587 -2.63764 4.2405
lowerneck 10.6689 -22.1809 -7.88313
upperneck -12.1972 -29.0161 20.5665
head -1.06651 -15.3803 7.4466
rclavicle -4.39811e-014 1.88845e-015
rhumerus -37.0963 2.99254 -81.2594
rradius 28.5103
rwrist -0.108746
rhand -4.36716 -41.4359
rfingers 7.12502
rthumb 21.4014 -70.2739
lclavicle -4.39811e-014 1.88845e-015
lhumerus -36.1098 -5.02465 76.7182
lradius 29.7555
lwrist 12.0654
lhand -9.14589 -11.9458
lfingers 7.12502
lthumb 16.806 17.3469
rfemur -20.3281 -3.74223 5.67239
rtibia 27.3954
rfoot -21.3342 -20.8485
rtoes -0.671405
lfemur -6.01885 -2.22886 -5.57958
ltibia 9.78666
lfoot -14.6883 -10.0458
ltoes 51.3327
